<?xml version="1.0" encoding="utf-8"?>
<svg id="visual" viewBox="0 0 900 600" width="900" height="600" version="1.1" xmlns="http://www.w3.org/2000/svg" xmlns:bx="https://boxy-svg.com">
  <defs>
    <filter id="outline-filter-0" x="-500%" y="-500%" width="1000%" height="1000%" bx:preset="outline 1 1 rgba(18,150,158,1)">
      <feMorphology in="SourceAlpha" result="dilated" operator="dilate" radius="1"/>
      <feFlood flood-color="rgba(18,150,158,1)" result="flood"/>
      <feComposite in="flood" in2="dilated" operator="in" result="outline"/>
      <feMerge>
        <feMergeNode in="outline"/>
        <feMergeNode in="SourceGraphic"/>
      </feMerge>
    </filter>
    <filter id="drop-shadow-filter-0" x="-500%" y="-500%" width="1000%" height="1000%" bx:preset="drop-shadow 1 0 0 10 0.5 rgba(18,150,158,1)">
      <feGaussianBlur in="SourceAlpha" stdDeviation="10"/>
      <feOffset dx="0" dy="0"/>
      <feComponentTransfer result="offsetblur">
        <feFuncA id="spread-ctrl" type="linear" slope="1"/>
      </feComponentTransfer>
      <feFlood flood-color="rgba(18,150,158,1)"/>
      <feComposite in2="offsetblur" operator="in"/>
      <feMerge>
        <feMergeNode/>
        <feMergeNode in="SourceGraphic"/>
      </feMerge>
    </filter>
  </defs>
  <g transform="translate(757.2001692454298 -170.4511974126204)" style="filter: url(#drop-shadow-filter-0);">
    <path d="M227.6 -308.5C333.6 -286.1 484.7 -288.2 602.8 -219.6C720.8 -150.9 805.8 -11.4 798 122C790.1 255.4 689.4 382.8 580.2 495.1C471 607.5 353.3 704.8 220.9 736.5C88.5 768.2 -58.6 734.3 -155.9 651C-253.2 567.6 -300.8 434.7 -359.8 331.4C-418.7 228.1 -489 154.2 -507.6 68.9C-526.3 -16.5 -493.3 -113.3 -442.9 -193.3C-392.5 -273.3 -324.6 -336.5 -247.9 -372.3C-171.2 -408.1 -85.6 -416.5 -12.4 -397.3C60.8 -378 121.6 -331 227.6 -308.5" fill="#07393C" style="filter: url(#outline-filter-0);"/>
  </g>
</svg>