<?xml version="1.0" encoding="UTF-8"?> <!-- Generator: Adobe Illustrator 24.2.3, SVG Export Plug-In . SVG Version: 6.00 Build 0) --> <svg xmlns="http://www.w3.org/2000/svg" xmlns:xlink="http://www.w3.org/1999/xlink" version="1.1" id="Layer_1" x="0px" y="0px" viewBox="0 0 425.2 64.3" style="enable-background:new 0 0 425.2 64.3;" xml:space="preserve"> <style type="text/css"> .st0{fill:#1D252C;} .st1{fill:#BBC5C3;} </style> <path class="st0" d="M81.8,49.6v-48h10.3v17.8c1-3,5.1-5.2,10.3-5.2c4.6-0.1,9.1,1.8,12.2,5.2c3.3,3.4,5.1,8,5,12.7 c0.1,4.8-1.7,9.4-5,12.8c-3.2,3.4-7.6,5.3-12.3,5.2c-5.2,0-9.3-2.1-10.3-5.2v4.5L81.8,49.6z M106.8,38.4c1.7-1.6,2.6-3.9,2.5-6.2 c0.1-2.3-0.9-4.5-2.5-6.1c-1.6-1.7-3.9-2.6-6.3-2.5c-2.4-0.1-4.7,0.9-6.5,2.5c-1.7,1.6-2.6,3.8-2.6,6.1c0,2.3,0.9,4.6,2.6,6.2 c1.7,1.6,4.1,2.5,6.5,2.5C102.9,41,105.2,40.1,106.8,38.4z"></path> <path class="st0" d="M124.6,14.9h10.3v19.8c0,4.1,2.1,6.5,6,6.5s6.4-2.8,6.4-6.9V14.9h10.3v34.7h-9.1v-4.3 c-1.7,3.4-5.2,5.1-10.2,5.1c-8.8,0-13.6-5.4-13.6-14.4L124.6,14.9z"></path> <path class="st0" d="M169.6,0c3.2,0,5.8,2.6,5.8,5.9c0,3.2-2.6,5.8-5.9,5.8c-3.2,0-5.8-2.6-5.8-5.8c0-3.2,2.6-5.8,5.8-5.9 C169.6,0,169.6,0,169.6,0z M164.5,49.3V14.6h10.3v34.7L164.5,49.3z"></path> <path class="st0" d="M181.4,1.3h10.3v35.1c0,3.1,1.2,4.5,4,4.5c0.8,0,1.7-0.1,2.5-0.3v9.1c-1.6,0.4-3.2,0.5-4.9,0.5 c-7.9,0-11.8-4.1-11.8-12.2L181.4,1.3z"></path> <path class="st0" d="M227.5,19.1V1.3h10.3v48h-10.3v-4.5c-1,3-5.1,5.2-10.3,5.2c-4.7,0.1-9.1-1.8-12.3-5.2c-3.2-3.5-5-8.1-4.9-12.8 c-0.1-4.7,1.6-9.3,4.9-12.7c3.2-3.4,7.7-5.4,12.3-5.2C222.5,14,226.5,16.1,227.5,19.1z M225.5,38.1c1.7-1.6,2.7-3.8,2.7-6.2 c0-2.3-0.9-4.6-2.7-6.1c-1.7-1.7-4-2.6-6.4-2.5c-2.4-0.1-4.6,0.9-6.3,2.5c-1.7,1.6-2.6,3.8-2.5,6.1c0,2.3,0.9,4.6,2.5,6.2 c1.7,1.6,3.9,2.5,6.3,2.5C221.5,40.7,223.8,39.8,225.5,38.1z"></path> <path class="st1" d="M244.6,1.3h10V14h7.2v9.3h-7.2v13c0,3.3,1.3,4.6,4.4,4.6c0.9,0,1.7-0.1,2.6-0.3v9.1c-1.6,0.4-3.3,0.5-5,0.5 c-8,0-12-4.1-12-12.4L244.6,1.3z"></path> <path class="st1" d="M298.1,18.9c3.7,3.3,5.7,8.1,5.7,13c0.1,5-2,9.7-5.6,13.1c-7.7,7.1-19.6,7.1-27.3,0c-3.6-3.4-5.7-8.1-5.6-13.1 c-0.1-4.9,1.9-9.7,5.6-13C278.5,11.8,290.4,11.8,298.1,18.9L298.1,18.9z M278.1,38.4c3.6,3.5,9.3,3.5,12.8,0c1.7-1.7,2.7-4,2.6-6.5 c0-2.4-0.9-4.7-2.6-6.4c-3.5-3.5-9.2-3.6-12.7-0.1c0,0-0.1,0.1-0.1,0.1c-1.7,1.7-2.7,4-2.6,6.4C275.5,34.4,276.4,36.7,278.1,38.4 L278.1,38.4z"></path> <path class="st1" d="M335.2,19.1V1.3h10.3v48h-10.3v-4.5c-1,3-5.1,5.2-10.3,5.2c-4.7,0.1-9.1-1.8-12.3-5.2c-3.2-3.5-5-8.1-4.9-12.8 c-0.1-4.7,1.6-9.3,4.9-12.7c3.2-3.4,7.6-5.4,12.3-5.2C330.1,14,334.2,16.1,335.2,19.1z M333.1,38.1c1.7-1.6,2.7-3.8,2.7-6.2 c0-2.3-0.9-4.6-2.7-6.1c-1.7-1.7-4-2.6-6.4-2.5c-2.4-0.1-4.6,0.9-6.3,2.5c-1.7,1.6-2.6,3.8-2.5,6.1c0,2.3,0.9,4.6,2.5,6.2 c1.7,1.6,3.9,2.5,6.3,2.5C329.1,40.7,331.4,39.8,333.1,38.1z"></path> <path class="st1" d="M366,27.8c5-0.5,7-1,7-3.2c0-1.9-1.6-2.9-4.7-2.9c-3.6,0-7,1.6-9.2,4.3l-6.1-5.2c3.7-4.9,8.7-7.4,15.2-7.4 c9.3,0,14.9,4.3,14.9,11.7v13.1c0,2.4,0.8,2.7,2.6,2.7h0.2v8.1c-1.3,0.6-2.7,0.8-4.1,0.8c-1.8,0.1-3.5-0.5-4.9-1.5 c-0.7-0.6-1.2-1.4-1.6-2.3c-2.3,2.8-6.2,4.1-11.7,4.1c-7.7,0-13-4.2-13-10.6C350.6,32.5,355.3,28.8,366,27.8z M365.2,41.8 c4.9,0,7.8-2.1,7.8-6.1v-2.5c-0.6,0.4-1.2,0.7-1.9,0.8l-1.2,0.2c-0.8,0.1-2.7,0.3-3.6,0.5c-3.6,0.5-5.6,1.5-5.6,3.9 C360.6,40.7,362.1,41.7,365.2,41.8L365.2,41.8z"></path> <path class="st1" d="M391.9,54.9c1.4,0.4,2.8,0.6,4.2,0.5c1.1,0.1,2.1-0.2,3-0.8c0.7-0.5,1.3-1.3,1.5-2.2l0.5-1.5l-14.8-36.4h10.4 l9.4,24.1l8.5-24.1h10.5l-15.4,40.2c-0.8,2.4-2.2,4.6-4,6.4c-2.3,2-5.4,3-9.3,3c-1.5,0-3.1-0.1-4.5-0.5V54.9z"></path> <rect x="38.2" y="1.5" class="st0" width="28.6" height="10.4"></rect> <rect y="38.9" class="st0" width="66.8" height="10.4"></rect> <rect x="19.1" y="20.2" class="st0" width="47.7" height="10.4"></rect> </svg> 