<?xml version="1.0" encoding="UTF-8"?> <!-- Generator: Adobe Illustrator 23.0.3, SVG Export Plug-In . SVG Version: 6.00 Build 0) --> <svg xmlns="http://www.w3.org/2000/svg" xmlns:xlink="http://www.w3.org/1999/xlink" id="Layer_1" x="0px" y="0px" width="327.8px" height="25px" viewBox="0 0 327.8 25" style="enable-background:new 0 0 327.8 25;" xml:space="preserve"> <style type="text/css"> .st0{fill:#002639;} </style> <g> <path class="st0" d="M1.4,22.4V2.7c0-0.5,0.4-0.9,0.9-0.9h2.4c0.5,0,0.9,0.4,0.9,0.9v19.7c0,0.5-0.4,0.9-0.9,0.9H2.3 C1.8,23.3,1.4,22.9,1.4,22.4z"></path> <path class="st0" d="M39.8,23.3c-0.5,0-0.9-0.4-0.9-0.9V5.5l-0.1,0.1L28.8,19.3c-0.4,0.5-1.1,0.5-1.5,0l-10-13.8l-0.1,0.1v16.8 c0,0.5-0.4,0.9-0.9,0.9h-2.3c-0.5,0-0.9-0.4-0.9-0.9V2.7c0-0.5,0.4-0.9,0.9-0.9h4.8c0.4,0,0.7,0.2,0.9,0.5L28,14l8.5-11.7 C36.7,2,37,1.8,37.4,1.8h4.8c0.5,0,0.9,0.4,0.9,0.9v19.7c0,0.5-0.4,0.9-0.9,0.9H39.8z"></path> <path class="st0" d="M264.8,23.3c-0.5,0-0.9-0.4-0.9-0.9V5.5l-0.1,0.1l-10.1,13.6c-0.4,0.5-1.1,0.5-1.5,0l-10-13.8l-0.1,0.1v16.8 c0,0.5-0.4,0.9-0.9,0.9h-2.3c-0.5,0-0.9-0.4-0.9-0.9V2.7c0-0.5,0.4-0.9,0.9-0.9h4.8c0.4,0,0.7,0.2,0.9,0.5L253,14l8.5-11.7 c0.2-0.3,0.5-0.5,0.9-0.5h4.8c0.5,0,0.9,0.4,0.9,0.9v19.7c0,0.5-0.4,0.9-0.9,0.9H264.8z"></path> <path class="st0" d="M74.8,8.6c0,4.3-2.9,6.8-8.2,6.8H54.2v7c0,0.5-0.4,0.9-0.9,0.9h-2.4c-0.5,0-0.9-0.4-0.9-0.9V2.7 c0-0.5,0.4-0.9,0.9-0.9h16.4C71.9,1.8,74.8,4.5,74.8,8.6z M70.5,8.7c0-2.1-1.3-3.1-4.1-3.1H54.2v6h12.5 C69.2,11.6,70.5,10.6,70.5,8.7z"></path> <path class="st0" d="M97.6,22.7l-2.2-4H81l-2.2,4c-0.2,0.4-0.6,0.6-1,0.6h-2.7c-0.6,0-0.9-0.6-0.6-1.1L85.3,2.4 c0.2-0.4,0.6-0.6,1-0.6h3.9c0.4,0,0.8,0.2,1,0.6l10.8,19.8c0.3,0.5-0.1,1.1-0.6,1.1h-2.7C98.1,23.3,97.8,23.1,97.6,22.7z M88.2,5.4 l-5.1,9.5h10.2L88.2,5.4z"></path> <path class="st0" d="M128.3,8.1c-0.4,0.1-0.8,0.1-1.2-0.2c-2.1-1.9-4.8-3-8.3-3c-6.2,0-10,3.1-10,7.6c0,4.5,3.8,7.7,10.1,7.7 c3.4,0,6-0.9,8.2-3c0.4-0.3,0.9-0.4,1.4-0.2l2,1.1c0.4,0.2,0.5,0.8,0.2,1.2c-3.2,3.3-6.8,4.6-11.8,4.6c-8.7,0-14.4-4.8-14.4-11.4 c0-3.5,1.5-6.3,4.5-8.5c2.4-1.7,5.9-2.9,9.6-2.9c5,0,9,1.6,12.2,5c0.4,0.4,0.2,1-0.3,1.2L128.3,8.1z"></path> <path class="st0" d="M147.3,5.6v16.8c0,0.5-0.4,0.9-0.9,0.9H144c-0.5,0-0.9-0.4-0.9-0.9V5.6h-9.4c-0.5,0-0.9-0.4-0.9-0.9v-2 c0-0.5,0.4-0.9,0.9-0.9h22.9c0.5,0,0.9,0.4,0.9,0.9v2c0,0.5-0.4,0.9-0.9,0.9H147.3z"></path> <path class="st0" d="M193.4,22.4V14h-16.6v8.3c0,0.5-0.4,0.9-0.9,0.9h-2.4c-0.5,0-0.9-0.4-0.9-0.9V2.7c0-0.5,0.4-0.9,0.9-0.9h2.4 c0.5,0,0.9,0.4,0.9,0.9v7.5h16.6V2.7c0-0.5,0.4-0.9,0.9-0.9h2.4c0.5,0,0.9,0.4,0.9,0.9v19.7c0,0.5-0.4,0.9-0.9,0.9h-2.4 C193.8,23.3,193.4,22.9,193.4,22.4z"></path> <path class="st0" d="M227.4,21.1c-2.4,1.8-5.8,2.8-9.6,2.8c-3.8,0-7.2-1.1-9.6-2.8c-3-2.2-4.5-5.1-4.5-8.6c0-3.5,1.5-6.3,4.5-8.5 c2.4-1.8,5.9-2.9,9.6-2.9s7.1,1.1,9.6,2.9c3,2.2,4.5,5.1,4.5,8.5C231.9,16,230.4,18.9,227.4,21.1z M217.8,4.9 c-5.8,0-9.8,3.3-9.8,7.6c0,4.5,3.8,7.7,9.8,7.7c5.9,0,9.7-3.1,9.7-7.7C227.5,8.1,223.6,4.9,217.8,4.9z"></path> <path class="st0" d="M275.4,22.4V2.7c0-0.5,0.4-0.9,0.9-0.9h20.5c0.5,0,0.9,0.4,0.9,0.9v2c0,0.5-0.4,0.9-0.9,0.9h-17.2v4.6h11.7 c0.5,0,0.9,0.4,0.9,0.9v2c0,0.5-0.4,0.9-0.9,0.9h-11.7v5.5h18c0.5,0,0.9,0.4,0.9,0.9v2c0,0.5-0.4,0.9-0.9,0.9h-21.3 C275.9,23.3,275.4,22.9,275.4,22.4z"></path> <path class="st0" d="M313.9,4.9c-4.8,0-7.2,0.9-7.2,2.6c0,2.3,3.8,2,10,2.6c6.7,0.7,10,2.2,10,6.5c0,4.6-4.2,7.2-12.1,7.2 c-5.2,0-9.4-1.1-12.6-3.3c-0.3-0.2-0.4-0.7-0.2-1l1.2-1.6c0.3-0.4,1-0.6,1.4-0.3c2.8,1.7,6.2,2.6,10.1,2.6c5,0,7.6-1.4,7.6-3.4 c0-1.1-0.8-2-2.4-2.4c-2.3-0.7-5.7-0.5-9.7-0.8c-5.3-0.5-7.8-2.2-7.8-5.6c0-4.1,4.1-6.7,11.5-6.7c4.4,0,8.1,0.9,11,2.6 c0.4,0.2,0.5,0.8,0.2,1.1l-1.4,1.5c-0.3,0.3-0.8,0.4-1.3,0.2C319.7,5.5,316.9,4.9,313.9,4.9z"></path> </g> </svg> 