<?xml version="1.0" encoding="UTF-8"?> <!-- Generator: Adobe Illustrator 25.3.1, SVG Export Plug-In . SVG Version: 6.00 Build 0) --> <svg xmlns="http://www.w3.org/2000/svg" xmlns:xlink="http://www.w3.org/1999/xlink" version="1.1" id="Layer_1" x="0px" y="0px" viewBox="0 0 399.1 39.8" style="enable-background:new 0 0 399.1 39.8;" xml:space="preserve"> <style type="text/css"> .st0{fill:#002856;} .st1{fill:#007FB0;} </style> <path class="st0" d="M85.4,0c-1.2,0-2.1,1-2.1,2.1s1,2.1,2.1,2.1c1.2,0,2.1-1,2.1-2.1c0,0,0,0,0,0C87.5,1,86.5,0,85.4,0z M30,8.8 H2.1C0.9,8.9,0,9.8,0,11c0,0,0,0,0,0v26.5c-0.1,1.2,0.8,2.2,2,2.3c1.2,0.1,2.2-0.8,2.3-2c0,0,0,0,0,0c0-0.1,0-0.2,0-0.3V13.1H30 c1,0,1.7,0.8,1.7,1.7v10c0,1-0.8,1.7-1.7,1.7H11c-1.2,0-2.1,1-2.1,2.1c0,1.2,1,2.1,2.1,2.1h19c3.3,0,6-2.7,6-6v-10 C36,11.5,33.3,8.8,30,8.8L30,8.8z M85.4,8.8c-1.2,0-2.2,0.9-2.2,2.1c0,0,0,0,0,0v17.7c0,1.2,1,2.1,2.1,2.1c1.2,0,2.1-1,2.1-2.1V11 C87.5,9.8,86.5,8.9,85.4,8.8L85.4,8.8z M131.6,9.5l-16.5,16.2L98.7,9.5c-0.9-0.8-2.2-0.6-3,0.3c-0.7,0.8-0.7,1.9,0,2.7l17.9,17.7 c0.8,0.8,2.2,0.8,3,0l18-17.7c0.8-0.9,0.6-2.2-0.3-3C133.5,8.8,132.4,8.8,131.6,9.5L131.6,9.5z M73.6,8.8h-24c-3.3,0-6,2.7-6,6v13.9 c0,1.2,1,2.1,2.1,2.1s2.1-1,2.1-2.1V14.8c0-1,0.8-1.7,1.7-1.7l0,0h24c1.2,0,2.1-1,2.1-2.1S74.8,8.8,73.6,8.8 C73.6,8.8,73.6,8.8,73.6,8.8z M186.8,8.8c-1.2,0-2.2,0.9-2.2,2.1c0,0,0,0.1,0,0.1l0,0v15.6h-20.2c-3.1,0-5.6-2.5-5.6-5.6V11 c0-1.2-1-2.1-2.1-2.1c-1.2,0-2.1,1-2.1,2.1c0,0,0,0,0,0v10c0,5.4,4.4,9.9,9.9,9.9h22.4c1.2,0,2.1-1,2.1-2.1c0,0,0,0,0,0l0,0V11 C188.9,9.8,187.9,8.9,186.8,8.8L186.8,8.8L186.8,8.8z M144.8,8.8c-1.2,0-2.2,0.9-2.2,2.1c0,0,0,0.1,0,0.1l0,0v17.7 c0,1.2,1,2.1,2.1,2.1c1.2,0,2.1-1,2.1-2.1c0,0,0,0,0,0V11C146.9,9.8,146,8.9,144.8,8.8L144.8,8.8z M231.2,8.8h-32.6 c-1.2,0-2.2,0.9-2.2,2.1c0,0,0,0,0,0v17.7c0,1.2,1,2.1,2.1,2.1c1.2,0,2.1-1,2.1-2.1V13.1h14v15.6c0,1.2,1,2.1,2.1,2.1 c1.2,0,2.1-1,2.1-2.1c0,0,0,0,0,0V13.1h12.3c1,0,1.7,0.8,1.8,1.7c0,0,0,0,0,0v13.9c0,1.2,1,2.1,2.1,2.1c1.2,0,2.1-1,2.1-2.1 c0,0,0,0,0,0V14.8C237.3,11.5,234.6,8.8,231.2,8.8L231.2,8.8L231.2,8.8z M144.8,0c-1.2,0-2.1,1-2.1,2.1c0,1.2,1,2.1,2.1,2.1 c1.2,0,2.1-1,2.1-2.1C146.9,1,146,0,144.8,0C144.8,0,144.8,0,144.8,0z"></path> <path class="st0" d="M231.4,0.5h-0.9c-0.1,0-0.2-0.1-0.2-0.2c0-0.1,0.1-0.2,0.2-0.2h2.3c0.1,0,0.2,0.1,0.2,0.2l0,0 c0,0.1-0.1,0.2-0.2,0.2h-0.9v2.8c0,0.1-0.1,0.2-0.2,0.2l0,0c-0.1,0-0.2-0.1-0.2-0.2c0,0,0,0,0,0l0,0L231.4,0.5z M233.7,0.2 c0-0.1,0.1-0.2,0.2-0.2c0,0,0,0,0,0h0.1c0.1,0,0.2,0,0.2,0.1l1.2,1.9l1.2-1.9c0-0.1,0.1-0.1,0.2-0.1h0.1c0.1,0,0.2,0.1,0.2,0.2v3 c0,0.1-0.1,0.2-0.2,0.2c-0.1,0-0.2-0.1-0.2-0.2c0,0,0,0,0,0l0,0V0.9l-1,1.5c0,0.1-0.1,0.1-0.2,0.2c-0.1,0-0.2-0.1-0.2-0.2l-1-1.5 v2.3c0,0.1-0.1,0.2-0.2,0.2s-0.2-0.1-0.2-0.2L233.7,0.2z"></path> <path class="st1" d="M289,10.3c0-0.7,0.5-1.2,1.2-1.2c0.7,0,1.2,0.5,1.2,1.2c0,0,0,0,0,0v8.4h12.2v-8.4c0-0.7,0.6-1.2,1.2-1.2 c0.7,0,1.2,0.6,1.2,1.2v19.1c0,0.7-0.5,1.2-1.2,1.2c-0.7,0-1.2-0.5-1.2-1.2v-8.5h-12.2v8.5c0,0.7-0.5,1.2-1.2,1.2 c-0.7,0-1.2-0.5-1.2-1.2l0,0L289,10.3z"></path> <path class="st1" d="M311.1,19.9L311.1,19.9c-0.2-6,4.5-11.1,10.5-11.3c6-0.2,11,4.5,11.2,10.5c0,0.2,0,0.4,0,0.7v0.1 c0.2,6-4.5,11-10.5,11.2s-11-4.5-11.2-10.5C311.1,20.3,311.1,20.1,311.1,19.9z M330.3,19.9L330.3,19.9c0.2-4.7-3.4-8.6-8.1-8.8h-0.3 c-4.9,0-8.3,3.9-8.3,8.7v0.1c-0.2,4.7,3.5,8.6,8.1,8.8c0,0,0,0,0,0h0.3C326.9,28.6,330.3,24.7,330.3,19.9z"></path> <path class="st1" d="M337.9,10.3c0-0.6,0.5-1.2,1.1-1.2h0.3c0.5,0,0.9,0.2,1.1,0.6l7.6,11.4l7.6-11.4c0.2-0.4,0.7-0.6,1.1-0.6h0.3 c0.7,0,1.2,0.5,1.2,1.2v19.1c0,0.7-0.5,1.2-1.2,1.2c-0.7,0-1.2-0.6-1.2-1.2V13.6l-6.8,10c-0.2,0.4-0.6,0.6-1,0.6 c-0.4,0-0.8-0.3-1-0.6l-6.8-9.9v15.8c0.1,0.6-0.4,1.2-1.1,1.3c-0.6,0.1-1.2-0.4-1.3-1.1l0,0c0-0.1,0-0.1,0-0.2L337.9,10.3z"></path> <path class="st1" d="M364.2,29.2V10.4c0-0.7,0.5-1.2,1.2-1.2h13.2c0.6,0,1.1,0.5,1.1,1.1s-0.5,1.1-1.1,1.1h-12v7.3h10.6 c0.6,0,1.1,0.5,1.1,1.1c0,0.6-0.5,1.1-1.1,1.1h-10.6v7.4h12.1c0.6,0.1,1,0.6,1,1.2c-0.1,0.5-0.5,0.9-1,1h-13.4 C364.7,30.4,364.2,29.9,364.2,29.2C364.2,29.2,364.2,29.2,364.2,29.2L364.2,29.2z"></path> <path class="st1" d="M383.8,27.9c-0.3-0.2-0.5-0.6-0.5-0.9c0-0.6,0.5-1.2,1.1-1.2c0,0,0,0,0,0l0,0c0.3,0,0.5,0.1,0.7,0.3 c1.8,1.7,4.2,2.6,6.7,2.5c2.9,0,4.7-1.5,4.7-3.6v-0.1c0-2-1.1-3.1-5.5-4c-4.9-1.1-7.1-2.6-7.1-6.1v-0.1c0-3.3,2.9-5.8,7-5.8 c2.4-0.1,4.8,0.7,6.8,2.1c0.3,0.2,0.5,0.6,0.5,1c0,0.6-0.5,1.1-1.1,1.1c0,0,0,0,0,0l0,0c-0.2,0-0.5-0.1-0.7-0.2 c-1.6-1.2-3.5-1.9-5.5-1.9c-2.8,0-4.5,1.5-4.5,3.4v0.1c0,2,1.1,3.1,5.8,4.1s6.9,2.8,6.9,6v0.1c0,3.6-3,6-7.2,6 C388.9,30.9,386,29.8,383.8,27.9z"></path> <path class="st1" d="M262.1,1c0-0.6,0.4-1,1-1s1,0.4,1,1v37.7c0,0.6-0.4,1-1,1s-1-0.4-1-1V1z"></path> </svg> 